<svg width="16" height="16" viewBox="0 0 16 16" fill="none" xmlns="http://www.w3.org/2000/svg">
<g id="mynaui:heart-solid">
<path id="Vector" d="M7.71067 14.0734C7.79515 14.1332 7.89613 14.1653 7.99967 14.1653C8.1032 14.1653 8.20418 14.1332 8.28867 14.0734L8 13.6654L8.28933 14.0734L8.29467 14.0694L8.30867 14.0594L8.362 14.0207C8.40822 13.9874 8.47378 13.9387 8.55867 13.8747C9.54933 13.127 10.4844 12.3084 11.3567 11.4254C12.122 10.6467 12.9 9.7367 13.4893 8.77137C14.076 7.81137 14.5 6.75537 14.5 5.6967C14.5 4.44003 14.11 3.45803 13.42 2.79136C12.7333 2.1287 11.8067 1.83203 10.8333 1.83203C9.68333 1.83203 8.668 2.38736 8 3.24336C7.332 2.38736 6.316 1.83203 5.16667 1.83203C3.11333 1.83203 1.5 3.59136 1.5 5.6967C1.5 6.75537 1.92467 7.8107 2.51067 8.77137C3.1 9.7367 3.878 10.6467 4.64333 11.426C5.5732 12.3668 6.57441 13.2343 7.638 14.0207L7.69133 14.0594L7.70533 14.0694L7.71067 14.0734Z" fill="#D21837"/>
</g>
</svg>
