<svg width="25" height="24" viewBox="0 0 25 24" fill="none" xmlns="http://www.w3.org/2000/svg">
<g id="tabler:clock">
<g id="Group">
<path id="Vector" d="M4.45801 12.5C4.45801 13.5506 4.66493 14.5909 5.06697 15.5615C5.46901 16.5321 6.05828 17.414 6.80115 18.1569C7.54402 18.8997 8.42594 19.489 9.39654 19.891C10.3671 20.2931 11.4074 20.5 12.458 20.5C13.5086 20.5 14.5489 20.2931 15.5195 19.891C16.4901 19.489 17.372 18.8997 18.1149 18.1569C18.8577 17.414 19.447 16.5321 19.849 15.5615C20.2511 14.5909 20.458 13.5506 20.458 12.5C20.458 10.3783 19.6152 8.34344 18.1149 6.84315C16.6146 5.34285 14.5797 4.5 12.458 4.5C10.3363 4.5 8.30144 5.34285 6.80115 6.84315C5.30086 8.34344 4.45801 10.3783 4.45801 12.5Z" stroke="#2C2C2C" stroke-width="1.8" stroke-linecap="round" stroke-linejoin="round"/>
<path id="Vector_2" d="M12.458 8.05469V12.4991L15.1247 15.1658" stroke="#2C2C2C" stroke-width="1.8" stroke-linecap="round" stroke-linejoin="round"/>
</g>
</g>
</svg>
