<svg width="25" height="24" viewBox="0 0 25 24" fill="none" xmlns="http://www.w3.org/2000/svg">
<g id="akar-icons:location">
<g id="Group">
<path id="Vector" d="M12.658 12.9C14.1492 12.9 15.358 11.6912 15.358 10.2C15.358 8.70883 14.1492 7.5 12.658 7.5C11.1668 7.5 9.95801 8.70883 9.95801 10.2C9.95801 11.6912 11.1668 12.9 12.658 12.9Z" stroke="#2C2C2C" stroke-width="1.8" stroke-linecap="round" stroke-linejoin="round"/>
<path id="Vector_2" d="M12.658 3C10.7484 3 8.9171 3.75857 7.56684 5.10883C6.21658 6.45909 5.45801 8.29044 5.45801 10.2C5.45801 11.9028 5.81981 13.017 6.80801 14.25L12.658 21L18.508 14.25C19.4962 13.017 19.858 11.9028 19.858 10.2C19.858 8.29044 19.0994 6.45909 17.7492 5.10883C16.3989 3.75857 14.5676 3 12.658 3Z" stroke="#2C2C2C" stroke-width="1.8" stroke-linecap="round" stroke-linejoin="round"/>
</g>
</g>
</svg>
